<?xml version="1.0" standalone="no"?><!DOCTYPE svg PUBLIC "-//W3C//DTD SVG 1.1//EN" "http://www.w3.org/Graphics/SVG/1.1/DTD/svg11.dtd"><svg class="icon" width="200px" height="200.00px" viewBox="0 0 1024 1024" version="1.1" xmlns="http://www.w3.org/2000/svg"><path fill="#f44336" d="M357.888 732.16h339.968l-45.568 195.072H593.92c-5.632 28.672-32.256 50.688-64 50.688s-58.368-22.016-64-50.688H400.384L357.888 732.16z m290.304-390.656l7.168 49.152-11.776 11.776 14.848 12.8-5.12 26.624-12.8 5.632 9.728 9.728-5.632 29.184-11.776 5.632 8.704 10.752-6.144 32.768-20.48 8.192L460.8 504.32l-57.856-2.048-1.536-141.312 52.224-3.584 121.344-125.952c59.904 43.008 7.168 85.504-34.304 117.248l107.52-7.168z m-301.568 340.48h82.944c-10.24-70.144-38.912-130.048-65.536-186.368-28.672-59.392-54.272-113.664-45.056-158.72 12.8-60.928 50.176-102.912 97.792-126.464 33.792-16.896 72.704-24.576 111.104-23.552 38.912 0.512 77.312 9.728 110.592 27.136 46.592 24.576 82.944 65.536 92.672 121.856 8.192 46.08-16.896 100.352-45.056 159.232-26.624 56.32-55.296 117.248-65.024 187.392h82.944c9.728-54.272 33.792-104.96 56.32-152.576 33.792-71.68 64.512-136.704 51.712-207.872-14.848-83.968-67.584-144.384-135.68-180.224-44.544-23.04-95.744-35.328-146.944-36.352-51.2-1.024-102.912 9.728-148.48 32.256C312.32 171.008 257.536 231.424 239.104 320c-15.36 72.192 16.384 138.24 50.688 210.944 23.04 47.104 47.104 97.792 56.832 151.04z"  /></svg>