<?xml version="1.0" encoding="iso-8859-1"?>
<!-- Generator: Adobe Illustrator 18.0.0, SVG Export Plug-In . SVG Version: 6.00 Build 0)  -->
<!DOCTYPE svg PUBLIC "-//W3C//DTD SVG 1.1//EN" "http://www.w3.org/Graphics/SVG/1.1/DTD/svg11.dtd">
<svg version="1.1" id="Capa_1" xmlns="http://www.w3.org/2000/svg" xmlns:xlink="http://www.w3.org/1999/xlink" x="0px" y="0px"
	 viewBox="0 0 490 490" style="enable-background:new 0 0 490 490;" xml:space="preserve">
<g>
	<path d="M230.546,31.109c-61.289,0-118.91,23.867-162.248,67.204C24.962,141.649,1.095,199.268,1.095,260.556
		s23.867,118.906,67.203,162.242C111.634,466.134,169.255,490,230.546,490c5.523,0,10-4.477,10-10V41.109
		C240.546,35.586,236.07,31.109,230.546,31.109z M220.546,469.764c-110.861-5.241-199.451-97.076-199.451-209.208
		c0-112.134,88.59-203.969,199.451-209.21V469.764z"/>
	<path d="M286.515,210.199c1.73,1.257,3.791,1.91,5.879,1.91c1.035,0,2.078-0.161,3.088-0.489l182.711-59.367
		c2.523-0.82,4.617-2.608,5.82-4.972c1.205-2.363,1.42-5.108,0.6-7.63C457.036,54.816,381.585,0,292.392,0c-5.522,0-10,4.477-10,10
		v192.108C282.392,205.31,283.925,208.317,286.515,210.199z M302.392,20.257c72.66,3.744,133.84,48.191,159.865,116.144
		l-159.865,51.944V20.257z"/>
	<path d="M478.706,215.674c-1.707-5.251-7.348-8.125-12.6-6.418l-186.41,60.57c-4.119,1.339-6.91,5.179-6.91,9.511v196.006
		c0,5.523,4.478,10,10,10c101.596,0,158.582-63.46,183.564-112.488C491.337,323.823,495.724,268.002,478.706,215.674z
		 M448.531,363.774c-22.557,44.269-72.98,94.764-155.744,101.34V286.602l169.744-55.154
		C474.433,275.867,469.57,322.488,448.531,363.774z"/>
</g>
<g>
</g>
<g>
</g>
<g>
</g>
<g>
</g>
<g>
</g>
<g>
</g>
<g>
</g>
<g>
</g>
<g>
</g>
<g>
</g>
<g>
</g>
<g>
</g>
<g>
</g>
<g>
</g>
<g>
</g>
</svg>
