<?xml version="1.0" encoding="iso-8859-1"?>
<!-- Generator: Adobe Illustrator 18.0.0, SVG Export Plug-In . SVG Version: 6.00 Build 0)  -->
<!DOCTYPE svg PUBLIC "-//W3C//DTD SVG 1.1//EN" "http://www.w3.org/Graphics/SVG/1.1/DTD/svg11.dtd">
<svg version="1.1" id="Capa_1" xmlns="http://www.w3.org/2000/svg" xmlns:xlink="http://www.w3.org/1999/xlink" x="0px" y="0px"
	 viewBox="0 0 490 490" style="enable-background:new 0 0 490 490;" xml:space="preserve">
<g>
	<path d="M327.612,255.522c26.457-26.458,56.826-63.119,56.826-112.184C384.439,66.451,321.887,3.899,245,3.899
		S105.562,66.451,105.562,143.339c0,49.064,30.369,85.727,56.827,112.184c12.33,12.33,12.395,35.054,12.075,52.443h-2.373
		c-5.523,0-10,4.477-10,10V440.82c0,5.522,4.477,10,10,10h13.3v25.28c0,5.523,4.478,10,10,10h99.219c5.522,0,10-4.477,10-10v-25.28
		h13.301c5.522,0,10-4.478,10-10V317.966c0-5.523-4.478-10-10-10h-2.374C315.217,290.575,315.282,267.853,327.612,255.522z
		 M284.609,466.101h-79.219v-15.28h79.219V466.101z M182.091,430.82v-21.565h94.438c5.522,0,10-4.477,10-10c0-5.524-4.478-10-10-10
		h-94.438v-61.289H307.91v21.565h-89.723c-5.523,0-10,4.478-10,10c0,5.523,4.477,10,10,10h89.723v61.289H182.091z M263.92,307.966
		l36.137-110.99c1.232-3.784,0.103-7.939-2.877-10.58c-2.978-2.639-7.24-3.26-10.85-1.582l-16.773,7.801l-15.207-24.229
		c-1.855-2.956-5.105-4.744-8.607-4.683c-3.49,0.048-6.703,1.913-8.476,4.919l-14.278,24.209l-19.699-8.186
		c-3.627-1.506-7.798-0.752-10.665,1.93c-2.868,2.681-3.902,6.791-2.645,10.511l37.521,110.88h-33.034
		c0.357-19.967,0.145-48.503-17.937-66.586c-25.204-25.203-50.97-56.561-50.97-98.041c0-65.859,53.58-119.439,119.438-119.439
		s119.439,53.58,119.439,119.439c0,41.48-25.765,72.838-50.969,98.041c-18.081,18.082-18.294,46.619-17.938,66.586H263.92z
		 M245.696,299.335l-29.695-87.75l7.347,3.053c4.608,1.913,9.917,0.141,12.45-4.155l10.349-17.546l11.16,17.781
		c2.679,4.268,8.115,5.875,12.688,3.752l3.929-1.828L245.696,299.335z"/>
	<path d="M480,114.22h-43.859c-5.522,0-10,4.477-10,10c0,5.523,4.478,10,10,10H480c5.522,0,10-4.477,10-10
		C490,118.696,485.522,114.22,480,114.22z"/>
	<path d="M423.689,92.507c2.068,0,4.155-0.64,5.944-1.965l26.913-19.938c4.439-3.287,5.371-9.55,2.083-13.988
		c-3.288-4.438-9.552-5.37-13.987-2.082L417.728,74.47c-4.438,3.288-5.371,9.551-2.083,13.988
		C417.607,91.106,420.628,92.507,423.689,92.507z"/>
	<path d="M456.546,177.833l-26.913-19.936c-4.439-3.287-10.701-2.354-13.987,2.082c-3.288,4.439-2.355,10.701,2.083,13.988
		l26.913,19.938c1.79,1.325,3.876,1.965,5.944,1.965c3.061,0,6.082-1.4,8.043-4.049
		C461.917,187.384,460.984,181.121,456.546,177.833z"/>
	<path d="M63.859,124.22c0-5.523-4.478-10-10-10H10c-5.523,0-10,4.477-10,10c0,5.523,4.477,10,10,10h43.859
		C59.382,134.22,63.859,129.742,63.859,124.22z"/>
	<path d="M72.272,74.47L45.358,54.534c-4.438-3.287-10.7-2.354-13.987,2.083c-3.288,4.438-2.355,10.7,2.083,13.987l26.914,19.938
		c1.79,1.325,3.876,1.965,5.944,1.965c3.061,0,6.082-1.4,8.043-4.049C77.644,84.021,76.711,77.758,72.272,74.47z"/>
	<path d="M60.368,157.897l-26.914,19.936c-4.439,3.288-5.371,9.551-2.083,13.988c1.961,2.648,4.982,4.049,8.043,4.049
		c2.068,0,4.155-0.64,5.944-1.965l26.914-19.938c4.438-3.287,5.371-9.55,2.083-13.987C71.069,155.542,64.805,154.609,60.368,157.897
		z"/>
</g>
</svg>
