<?xml version="1.0" encoding="iso-8859-1"?>
<!-- Generator: Adobe Illustrator 16.0.0, SVG Export Plug-In . SVG Version: 6.00 Build 0)  -->
<!DOCTYPE svg PUBLIC "-//W3C//DTD SVG 1.1//EN" "http://www.w3.org/Graphics/SVG/1.1/DTD/svg11.dtd">
<svg xmlns="http://www.w3.org/2000/svg" xmlns:xlink="http://www.w3.org/1999/xlink" version="1.1" id="Capa_1" x="0px" y="0px" width="512px" height="512px" viewBox="0 0 611.993 611.994" style="enable-background:new 0 0 611.993 611.994;" xml:space="preserve">
<g>
	<path d="M572.188,53.58H40.138c-11.28,0-20.897,3.963-28.525,11.888C3.977,73.464,0,83.088,0,94.34v423.951   c0,10.968,3.899,20.663,11.612,28.518c7.543,7.714,17.252,11.605,28.525,11.605h532.05c11.28,0,20.649-3.892,28.193-11.605   c7.713-7.854,11.612-17.55,11.612-28.518V94.34C612,71.837,594.748,53.58,572.188,53.58z M575.507,518.291   c0,2.335-0.998,3.325-3.319,3.325H40.138c-2.321,0-3.319-0.99-3.319-3.325V150.103L292.895,411.79   c3.609,3.68,7.961,5.308,12.936,5.308h0.665c5.641,0,9.999-1.628,13.602-5.308l255.41-261.687V518.291L575.507,518.291z    M575.507,97.666L306.495,373.01L36.819,97.666V94.34c0-2.618,0.998-3.963,3.319-3.963h532.05c2.321,0,3.319,1.345,3.319,3.963   V97.666L575.507,97.666z" fill="#f44336"/>
</g>
</svg>
