<?xml version="1.0" encoding="iso-8859-1"?>
<!-- Generator: Adobe Illustrator 18.0.0, SVG Export Plug-In . SVG Version: 6.00 Build 0)  -->
<!DOCTYPE svg PUBLIC "-//W3C//DTD SVG 1.1//EN" "http://www.w3.org/Graphics/SVG/1.1/DTD/svg11.dtd">
<svg version="1.1" id="Capa_1" xmlns="http://www.w3.org/2000/svg" xmlns:xlink="http://www.w3.org/1999/xlink" x="0px" y="0px"
	 viewBox="0 0 490 490" style="enable-background:new 0 0 490 490;" xml:space="preserve">
<g>
	<path d="M439.305,163.153c-9.006-16.559-19.943-31.656-32.445-45.082l23.233-28.824c3.466-4.299,2.789-10.595-1.511-14.061
		c-4.3-3.465-10.597-2.791-14.062,1.51l-22.012,27.309c-27.63-24.727-61.168-42.214-97.561-50.649V10c0-5.523-4.477-10-10-10H209.83
		c-5.522,0-10,4.477-10,10v42.342c-21.031,4.412-41.455,11.863-60.46,22.2c-15.226,8.281-29.228,18.168-41.851,29.42L75.544,76.696
		c-3.465-4.299-9.762-4.975-14.062-1.51c-4.3,3.466-4.977,9.762-1.511,14.061l23.173,28.751
		c-23.109,24.758-40.322,54.73-50.197,88.157c-16.737,56.65-10.411,116.427,17.811,168.318C89.516,445.733,164.03,490,245.22,490
		c36.627,0,73.1-9.308,105.474-26.915c34.748-18.898,63.797-46.73,84.007-80.486c19.614-32.762,30.488-70.252,31.449-108.418
		C467.12,235.62,457.837,197.227,439.305,163.153z M219.83,20h55.118v29.672c-9.892-1.353-19.945-2.046-30.103-2.046
		c-8.362,0-16.715,0.51-25.015,1.469V20z M446.156,273.678c-1.805,71.745-42.045,137.589-105.017,171.838
		C311.688,461.534,278.519,470,245.22,470c-73.857,0-141.639-40.265-176.892-105.081C15.336,267.483,51.494,145.102,148.927,92.11
		c29.45-16.018,62.619-24.484,95.918-24.484c73.857,0,141.638,40.266,176.89,105.082
		C438.593,203.704,447.038,238.619,446.156,273.678z"/>
	<path d="M249.892,116.554c0.109,0.003,0.217,0.004,0.325,0.004c5.375,0,9.816-4.27,9.989-9.681l0.174-5.446
		c0.176-5.521-4.156-10.139-9.676-10.314c-5.5-0.176-10.139,4.156-10.314,9.676l-0.174,5.447
		C240.04,111.759,244.372,116.377,249.892,116.554z"/>
	<path d="M159.576,130.427c1.803,3.366,5.255,5.281,8.824,5.281c1.593,0,3.209-0.382,4.712-1.186
		c4.868-2.607,6.702-8.667,4.095-13.536l-2.572-4.804c-2.607-4.868-8.666-6.702-13.536-4.095c-4.868,2.607-6.702,8.667-4.095,13.536
		L159.576,130.427z"/>
	<path d="M112.379,174.702l-4.63-2.873c-4.69-2.912-10.857-1.469-13.77,3.223c-2.913,4.693-1.47,10.857,3.223,13.77l4.63,2.874
		c1.642,1.018,3.464,1.504,5.264,1.504c3.345,0,6.613-1.678,8.506-4.727C118.515,183.78,117.072,177.615,112.379,174.702z"/>
	<path d="M92.774,263.95c0.176-5.521-4.157-10.138-9.677-10.313l-5.446-0.173c-5.529-0.172-10.137,4.157-10.313,9.677
		c-0.176,5.521,4.157,10.138,9.677,10.314l5.446,0.173c0.108,0.003,0.217,0.005,0.324,0.005
		C88.16,273.632,92.601,269.361,92.774,263.95z"/>
	<path d="M97.205,336.638l-4.803,2.573c-4.869,2.608-6.701,8.669-4.093,13.537c1.803,3.365,5.255,5.28,8.823,5.28
		c1.594,0,3.21-0.383,4.713-1.188l4.803-2.572c4.869-2.608,6.701-8.669,4.093-13.537
		C108.133,335.862,102.073,334.029,97.205,336.638z"/>
	<path d="M164.693,398.241c-4.694-2.912-10.857-1.468-13.771,3.225l-2.873,4.629c-2.912,4.692-1.469,10.857,3.224,13.77
		c1.643,1.02,3.464,1.505,5.264,1.505c3.345,0,6.613-1.678,8.507-4.729l2.873-4.63C170.829,407.319,169.385,401.153,164.693,398.241
		z"/>
	<path d="M240.173,421.07c-5.54-0.163-10.138,4.156-10.314,9.677l-0.174,5.445c-0.176,5.52,4.156,10.139,9.676,10.314
		c0.109,0.004,0.217,0.005,0.325,0.005c5.375,0,9.816-4.27,9.989-9.681l0.174-5.447C250.025,425.864,245.693,421.247,240.173,421.07
		z"/>
	<path d="M330.489,407.195c-2.607-4.868-8.668-6.704-13.537-4.093c-4.868,2.607-6.701,8.668-4.094,13.536l2.573,4.804
		c1.803,3.366,5.256,5.281,8.824,5.281c1.593,0,3.21-0.383,4.713-1.188c4.868-2.607,6.701-8.668,4.094-13.537L330.489,407.195z"/>
	<path d="M392.862,348.802l-4.629-2.873c-4.691-2.912-10.858-1.47-13.77,3.223c-2.913,4.692-1.47,10.857,3.223,13.77l4.629,2.873
		c1.642,1.02,3.464,1.506,5.264,1.506c3.345,0,6.613-1.678,8.506-4.729C398.997,357.879,397.554,351.714,392.862,348.802z"/>
	<path d="M413.051,264.17l-5.447-0.173c-5.54-0.164-10.137,4.157-10.314,9.677c-0.176,5.521,4.157,10.138,9.677,10.314l5.447,0.173
		c0.108,0.003,0.217,0.005,0.324,0.005c5.375,0,9.816-4.271,9.989-9.682C422.904,268.963,418.571,264.346,413.051,264.17z"/>
	<path d="M388.148,202.173c1.594,0,3.21-0.382,4.713-1.188l4.803-2.572c4.869-2.607,6.701-8.668,4.093-13.537
		c-2.607-4.868-8.669-6.701-13.536-4.093l-4.803,2.573c-4.869,2.607-6.701,8.668-4.093,13.537
		C381.127,200.259,384.58,202.173,388.148,202.173z"/>
	<path d="M338.79,117.759c-4.691-2.912-10.857-1.468-13.77,3.225l-2.873,4.63c-2.912,4.692-1.468,10.858,3.225,13.77
		c1.642,1.019,3.463,1.505,5.263,1.505c3.345,0,6.614-1.679,8.507-4.729l2.873-4.63C344.927,126.835,343.483,120.67,338.79,117.759z
		"/>
	<path d="M260.831,242.577c-4.95-2.978-10.609-4.552-16.365-4.552c-7.588,0-14.868,2.762-20.542,7.543l-76.998-48.874
		c-4.664-2.959-10.844-1.578-13.802,3.084c-2.96,4.663-1.579,10.842,3.083,13.803l77.266,49.044
		c-1.129,4.837-1.111,9.906,0.123,14.866c2.049,8.24,7.185,15.189,14.461,19.566c4.95,2.979,10.61,4.553,16.366,4.553
		c11.1,0,21.545-5.903,27.261-15.405C280.719,271.185,275.851,251.614,260.831,242.577z M254.545,275.896
		c-2.152,3.578-5.936,5.715-10.122,5.715c-2.124,0-4.219-0.585-6.057-1.69c-2.698-1.623-4.603-4.2-5.362-7.256
		c-0.76-3.056-0.284-6.225,1.34-8.924c2.152-3.579,5.937-5.715,10.122-5.715c2.123,0,4.217,0.585,6.055,1.69
		C256.091,263.066,257.897,270.325,254.545,275.896z"/>
</g>
</svg>
