<?xml version="1.0" standalone="no"?><!DOCTYPE svg PUBLIC "-//W3C//DTD SVG 1.1//EN" "http://www.w3.org/Graphics/SVG/1.1/DTD/svg11.dtd"><svg t="1481057199350" class="icon" style="" viewBox="0 0 1024 1024" version="1.1" xmlns="http://www.w3.org/2000/svg" p-id="1951" xmlns:xlink="http://www.w3.org/1999/xlink" width="200" height="200"><defs><style type="text/css"></style></defs><path d="M849.274048 515.594875c-5.233188-7.665587-11.81407-13.292748-6.963599-25.460882 19.539009-48.923246 8.629541-93.238544-26.161846-131.312698-11.558244-12.633738-17.630542-26.351158-19.211551-42.383296-3.447519-35.121915-16.671705-66.781986-32.668027-97.635691C706.627211 107.662045 575.368748 43.598984 459.340151 70.098521c-131.87347 30.109762-212.186633 119.698173-230.081189 254.048043-1.63422 12.167111 3.885494 26.967188-9.614985 37.839817-28.974915 23.399943-43.897789 60.029188-34.770921 91.095741 10.836813 36.84107-3.258207 57.629535-21.99085 81.942267-6.326079 8.240685-11.516288 17.498536-16.068977 26.861788-27.022447 55.422264-49.714262 111.798249-36.139082 175.677115 5.976108 28.092825 15.995299 31.871895 39.153742 14.863523 16.918321-12.399401 27.319206-30.875195 42.475394-46.50415 65.464991 143.204539 177.713494 216.019938 331.759963 211.728192 143.983275-4.013407 248.484328-76.655867 308.802088-213.21301 8.650007 11.338233 14.783705 20.765953 22.299889 28.878724 12.406564 13.399171 26.012444 33.443693 44.512796 27.541263 19.497053-6.221702 16.47216-30.598902 17.384949-48.646953C920.86148 637.649721 889.806183 574.944588 849.274048 515.594875zM560.8378 210.945363c19.730367-22.317285 46.349631-21.701255 66.218144 2.14485 15.039531 18.050098 20.134573 39.751353 20.271696 57.205886 0.073678 28.601408-5.126764 50.155307-19.635199 68.650543-19.687388 25.098631-46.911426 25.798573-67.670216 1.952468C531.535427 308.134893 531.936563 243.624646 560.8378 210.945363zM406.315494 211.178677c20.10285-22.762423 47.040363-21.680788 66.090231 1.89107 26.63973 32.997532 27.626197 89.480964 2.176572 124.113739-19.784602 26.926256-49.693796 27.689642-70.825069 1.826602-13.193487-16.138562-18.583241-34.400484-18.657942-64.298422C383.452787 251.39768 390.140093 229.482555 406.315494 211.178677zM368.837928 402.267806c109.203144-47.735188 218.013339-46.206368 325.539284 5.796006 10.190083 4.926196 25.739221 7.750521 24.920576 22.573111-0.795109 14.248516-14.400988 20.214391-26.066679 25.842575-8.500605 4.118807-16.694217 9.702989-29.67588 7.898901 3.121084-7.792477 5.690606-14.20656 11.208273-28.008914-101.582583 75.956949-198.717877 75.234495-297.615305 6.625908 3.39533 6.519484 6.80294 13.037944 10.232039 19.642362-5.647627 4.989641-10.783601 1.847068-15.634072-0.064468-16.312524-6.414083-37.688367-11.042497-39.005362-31.003108C331.383898 410.718269 354.531084 408.508951 368.837928 402.267806zM569.892013 893.146766c-143.54837 29.153994-324.235592-51.578726-324.18238-261.228583 0-15.099906 2.314719-30.600949 6.219655-45.187155 1.7519-6.583952 0.106424-22.338774 12.917194-17.815761 10.199293 3.631714 26.140357 6.879688 23.995507 25.205055-3.183506 27.073612-5.412266 54.253648-8.425903 81.34875-4.733814 42.729174 11.378142 67.995627 52.388161 79.18855 14.603603 3.969405 29.835516 6.79373 44.906769 7.580652 40.553625 2.100848 57.94983-15.161305 59.403948-56.781214 0.297782-8.81169 0.956791-17.652032 1.443885-26.463722 1.231037-49.644677 1.199315-49.348941 50.339502-43.190685 90.565668 11.340279 175.687348-4.3951 254.248611-52.086285 27.446096-16.668635 28.826536-15.798824 33.336246 17.158798C792.362874 716.687846 736.725716 859.235422 569.892013 893.146766zM416.652933 677.716252c-0.276293-0.01842-0.552585-0.01842-0.828878-0.01842-0.49835 7.196912-1.295506 14.351869-1.465374 21.556968-0.849344 35.373649-10.16757 44.12394-45.149293 39.770795-13.363356-1.656733-26.662243-5.2864-39.482223-9.597589-18.892279-6.328126-28.487821-20.258393-27.076682-40.395012 1.90028-27.157523 4.723581-54.275137 6.655584-81.413218 0.955768-13.525038 7.175423-12.992919 17.660218-9.31925 22.596647 7.898901 45.309952 15.947204 68.585051 21.233604 16.080234 3.631714 23.286356 10.128685 21.312398 26.947745C415.66442 656.760988 416.652933 667.293879 416.652933 677.716252zM808.314171 500.730329c-45.203528 52.872185-103.567797 87.74032-170.219823 103.389742-124.794238 29.30442-243.689115 6.263657-356.192422-52.704362-21.555945-11.296277-38.526455-28.794813-52.78111-48.499597-29.251208-40.430828-30.142507-59.795874-5.593392-113.178689 55.721069 107.911732 151.98553 140.741441 264.171612 144.094816 52.389184 1.572822 104.480586-0.337691 155.172105-15.309684 72.022337-21.255093 131.691321-58.648748 164.730809-129.911792C836.812225 420.952354 837.927629 466.076064 808.314171 500.730329zM204.380342 832.755328c-5.136997 8.324596-1.464351 17.262152-4.308119 25.694195-13.521968 40.196491-6.866385 56.567343 30.673603 74.383104 52.28276 24.77936 107.653859 31.680537 164.435073 24.121374 26.459628-3.5038 52.993958-10.023284 78.636988-32.234145-87.392396-6.731308-155.256016-44.973284-214.925001-100.05581C239.724315 806.977221 218.114135 810.522977 204.380342 832.755328zM829.011562 844.116073c-2.971681-19.49296-36.139082-41.981137-46.721091-31.30089-61.410652 62.006216-133.167952 103.519702-225.835492 112.565728 19.051915 16.922415 37.827537 23.016203 57.05853 27.307949 57.908898 12.909008 114.51001 8.004301 169.881109-13.378705 50.309826-19.451004 56.359612-30.259164 45.278229-83.34522C827.885925 852.206332 829.584614 847.959611 829.011562 844.116073zM571.727825 280.31836c1.252527-4.458545 1.581008-9.640568 7.417947-11.55108 4.691859 0.12689 6.836709 3.991917 7.398504 7.517207 1.453095 9.236362 6.547113 12.592806 14.921851 9.937326 10.539031-3.332908 2.834558-10.595312 2.164293-15.754822-1.920746-14.821567-9.201569-26.860764-25.535583-26.055422-16.398482 0.807389-21.216207 14.927991-23.731494 28.644387-0.774643 4.226255-5.381567 11.658528 3.917216 13.31526C563.735803 287.324938 569.625954 287.835567 571.727825 280.31836zM457.344704 309.345464c18.96698 0.042979 23.2444-17.984606 22.62837-33.464159-0.551562-13.908778-2.483564-31.746028-21.184485-32.298614-19.826558-0.574075-22.075785 16.880459-24.580838 30.833239C435.545212 291.657616 438.443215 309.283042 457.344704 309.345464z" p-id="1952" fill="#f44336"></path></svg>