<?xml version="1.0" encoding="iso-8859-1"?>
<!-- Generator: Adobe Illustrator 16.0.0, SVG Export Plug-In . SVG Version: 6.00 Build 0)  -->
<!DOCTYPE svg PUBLIC "-//W3C//DTD SVG 1.1//EN" "http://www.w3.org/Graphics/SVG/1.1/DTD/svg11.dtd">
<svg xmlns="http://www.w3.org/2000/svg" xmlns:xlink="http://www.w3.org/1999/xlink" version="1.1" id="Capa_1" x="0px" y="0px" width="512px" height="512px" viewBox="0 0 792 792" style="enable-background:new 0 0 792 792;" xml:space="preserve">
<g>
	<g>
		<path d="M653.037,90.952c-23.533-26.056-55.818-47.233-97.197-63.238C514.461,11.708,468.461,0,417.664,0h-22.643h-13.274h-1.174    c-51.938,0-99.146,10.151-141.69,26.156s-75.729,37.082-99.537,63.621c-23.808,26.548-35.908,55.427-35.908,87.046v438.745    c0,49.964,32.21,94.89,90.169,128.033C249.634,775.645,316.561,792,394.239,792h1.565c80.018,0,147.502-16.089,202.588-47.616    c58.117-33.268,90.169-79.243,90.169-128.816V176.823C688.562,145.987,676.745,117.199,653.037,90.952z M645.234,615.568    c0,33.959-22.825,64.361-68.701,90.951c-49.765,28.838-110.079,42.545-180.729,42.545h-0.783    c-69.875,0-129.824-13.657-179.555-42.545c-44.343-25.757-69.092-58.158-69.092-90.951V176.823    c0-23.025,10.542-44.493,31.619-64.404c21.076-19.911,49.631-36.124,85.872-48.398c36.357-12.316,76.104-20.694,118.665-20.694    h12.491h20.302c41.812,0,79.96,9.152,115.543,21.859c35.458,12.666,63.138,28.596,83.531,48.407    c20.594,20.002,30.837,40.979,30.837,63.229V615.568z" fill="#f44336"/>
		<path d="M395.804,643.673c-20.293,0-36.69,16.396-36.69,36.69c0,20.302,16.397,36.69,36.69,36.69    c19.911,0,37.082-16.78,37.082-36.69C432.886,660.461,415.715,643.673,395.804,643.673z" fill="#f44336"/>
		<path d="M520.715,112.028h-249.43c-25.374,0-46.941,8.885-65.187,26.931c-18.054,17.862-26.931,39.43-26.931,64.804v318.905    c0,25.373,8.885,47.332,26.931,65.187c18.246,18.054,39.813,26.931,65.187,26.931h249.43c25.374,0,46.842-8.977,64.404-26.931    s26.547-39.813,26.547-65.187V203.763c0-25.374-8.977-46.842-26.547-64.804C567.557,121.005,546.089,112.028,520.715,112.028z     M568.723,522.668c0,13.665-4.589,25.073-14.057,34.741c-9.269,9.46-20.686,14.049-33.959,14.049H271.285    c-13.274,0-24.691-4.58-34.351-14.049c-9.859-9.659-14.439-21.076-14.439-34.741V203.763c0-13.274,4.68-24.591,14.439-34.351    s21.077-14.448,34.351-14.448h249.43c13.274,0,24.591,4.688,33.959,14.448s14.057,21.077,14.057,34.351v318.905H568.723z" fill="#f44336"/>
	</g>
</g>
<g>
</g>
<g>
</g>
<g>
</g>
<g>
</g>
<g>
</g>
<g>
</g>
<g>
</g>
<g>
</g>
<g>
</g>
<g>
</g>
<g>
</g>
<g>
</g>
<g>
</g>
<g>
</g>
<g>
</g>
</svg>
