<?xml version="1.0" encoding="iso-8859-1"?>
<!-- Generator: Adobe Illustrator 18.0.0, SVG Export Plug-In . SVG Version: 6.00 Build 0)  -->
<!DOCTYPE svg PUBLIC "-//W3C//DTD SVG 1.1//EN" "http://www.w3.org/Graphics/SVG/1.1/DTD/svg11.dtd">
<svg version="1.1" id="Capa_1" xmlns="http://www.w3.org/2000/svg" xmlns:xlink="http://www.w3.org/1999/xlink" x="0px" y="0px"
	 viewBox="0 0 490 490" style="enable-background:new 0 0 490 490;" xml:space="preserve">
<path d="M428.584,262.622c-4.846-1.189-7.662-4.459-8.524-9.941c17.226-10.04,26.949-30.96,26.949-58.668
	c0-35.963-25.418-65.221-56.66-65.221c-31.241,0-56.658,29.258-56.658,65.221c0,27.709,9.723,48.629,26.947,58.669
	c-0.86,5.481-3.677,8.751-8.522,9.941c-25.536,6.263-40.869,14.202-50.105,26.126c-11.063-2.498-18.559-7.584-19.649-21.164
	c24.271-12.793,38.03-41.48,38.03-80.003c0-48.186-33.821-87.388-75.393-87.388s-75.393,39.202-75.393,87.388
	c0,38.522,13.76,67.209,38.03,80.003c-1.091,13.58-10.063,19.583-19.651,21.164c-9.232-11.924-24.557-19.861-50.102-26.126
	c-4.846-1.19-7.663-4.459-8.523-9.941c17.225-10.039,26.947-30.959,26.947-58.669c0-35.963-25.417-65.221-56.658-65.221
	c-31.242,0-56.66,29.258-56.66,65.221c0,27.708,9.723,48.628,26.948,58.668c-0.861,5.482-3.678,8.752-8.522,9.941
	C15.497,273.883,0,291.181,0,331.172c0,5.522,4.477,10,10,10h104.561c-4.392,12.672-5.203,26.215-5.203,38.635
	c0,5.522,4.478,10,10,10h251.285c5.522,0,10-4.478,10-10c0-12.42-0.812-25.963-5.203-38.635H480c5.522,0,10-4.478,10-10
	C490,291.18,474.502,273.883,428.584,262.622z M20.326,321.172c1.557-19.667,9.733-30.268,45.854-39.126
	c12.286-3.015,25.036-14.054,23.978-35.996c-0.19-3.957-2.699-7.428-6.396-8.851c-18.748-7.219-20.773-32.606-20.773-43.187
	c0-24.935,16.445-45.221,36.66-45.221c20.214,0,36.658,20.286,36.658,45.221c0,10.581-2.023,35.971-20.77,43.187
	c-3.696,1.422-6.204,4.893-6.396,8.849c-1.062,21.943,11.689,32.983,23.978,35.998c15.421,3.782,26.149,8.056,33.206,13.344
	c-18.582,6.782-31.43,14.946-40.286,25.374c-0.114,0.135-0.222,0.272-0.335,0.408H20.326z M129.6,369.807
	c0.711-13.363,3.125-23.875,8.916-32.493c0.224-0.288,0.432-0.589,0.623-0.9c9.242-13.006,26.559-21.644,57.998-29.352
	c7.602-1.863,32.269-10.713,30.551-46.356c-0.19-3.957-2.699-7.428-6.396-8.852c-20.135-7.75-31.684-31.177-31.684-64.272
	c0-37.157,24.849-67.388,55.393-67.388s55.393,30.23,55.393,67.388c0,33.097-11.548,56.523-31.684,64.272
	c-3.697,1.423-6.206,4.894-6.397,8.852c-1.718,35.643,22.949,44.493,30.551,46.356c52.675,12.914,65.71,28.434,67.537,62.745H129.6z
	 M364.295,321.172c-0.113-0.136-0.221-0.273-0.335-0.408c-8.857-10.428-21.703-18.591-40.283-25.373
	c7.06-5.289,17.79-9.564,33.204-13.345c12.287-3.015,25.038-14.054,23.977-35.998c-0.191-3.956-2.699-7.426-6.395-8.849
	c-18.747-7.217-20.771-32.605-20.771-43.187c0-24.935,16.444-45.221,36.658-45.221c20.215,0,36.66,20.286,36.66,45.221
	c0,10.58-2.024,35.968-20.773,43.187c-3.696,1.423-6.205,4.894-6.396,8.851c-1.059,21.943,11.692,32.982,23.979,35.996
	c36.121,8.858,44.298,19.459,45.854,39.126H364.295z"/>
</svg>
